<?xml version="1.0" standalone="no"?>
<!DOCTYPE svg PUBLIC "-//W3C//DTD SVG 20010904//EN"
 "http://www.w3.org/TR/2001/REC-SVG-20010904/DTD/svg10.dtd">
<svg version="1.0" xmlns="http://www.w3.org/2000/svg"
 width="400.000000pt" height="400.000000pt" viewBox="0 0 400.000000 400.000000"
 preserveAspectRatio="xMidYMid meet">
<metadata>
Created by potrace 1.14, written by Peter Selinger 2001-2017
</metadata>
<g transform="translate(0.000000,400.000000) scale(0.100000,-0.100000)"
fill="#000000" stroke="none">
<path d="M0 2000 l0 -2000 2000 0 2000 0 0 2000 0 2000 -2000 0 -2000 0 0
-2000z m1018 854 c4 3 8 -4 8 -15 0 -19 -1 -18 -18 3 -10 13 -18 28 -17 33 0
6 4 2 10 -8 6 -9 13 -15 17 -13z m246 -168 c16 4 26 2 26 -5 0 -6 -5 -11 -11
-11 -5 0 -7 -6 -3 -12 6 -10 4 -10 -8 0 -8 7 -23 9 -33 6 -13 -5 -14 -9 -3
-15 7 -5 23 -9 36 -9 13 0 20 -4 17 -10 -3 -5 1 -10 9 -10 14 0 43 -76 33 -86
-8 -8 -48 31 -51 50 -2 12 -11 20 -24 21 -30 2 -33 7 -39 57 -6 38 -4 42 9 30
10 -8 26 -10 42 -6z m181 -105 c-19 -7 -22 -23 -19 -78 3 -36 1 -52 -6 -48
-15 9 -10 91 9 145 15 45 15 45 21 15 3 -17 1 -32 -5 -34z m-70 -20 c-4 -28
-22 -21 -32 13 -8 25 -8 37 1 46 8 8 14 4 22 -16 7 -16 11 -35 9 -43z m-117
-19 c-1 -29 -7 -41 -24 -49 -22 -10 -22 -9 -19 46 2 31 4 57 4 59 1 1 10 -2
21 -8 15 -8 19 -20 18 -48z m112 -87 c0 -8 6 -15 13 -16 9 0 9 -2 0 -6 -10 -4
-10 -10 2 -26 17 -24 20 -84 5 -107 -6 -10 -10 -11 -10 -2 0 7 -15 12 -40 12
-22 0 -40 5 -40 10 0 6 -7 10 -16 10 -12 0 -15 -7 -12 -30 6 -41 -4 -38 -31
10 -24 43 -18 69 18 71 9 0 32 20 51 44 36 45 60 57 60 30z m-34 -221 c-9 -8
-13 -20 -10 -26 4 -7 2 -8 -4 -4 -14 8 2 46 19 46 6 0 3 -7 -5 -16z m-69 -250
c15 -42 28 -89 17 -64 -4 8 -20 30 -35 48 -32 37 -41 79 -13 64 9 -5 23 -27
31 -48z m89 -59 c-3 -8 1 -18 7 -22 9 -6 12 -24 8 -58 l-4 -50 -12 60 c-10 56
-10 85 2 85 3 0 3 -7 -1 -15z m-46 -50 c14 -19 14 -19 -2 -6 -10 7 -18 18 -18
24 0 6 1 8 3 6 1 -2 9 -13 17 -24z m110 -53 c0 -15 -2 -15 -10 -2 -13 20 -13
33 0 25 6 -3 10 -14 10 -23z m-38 -56 c22 -17 36 -76 18 -76 -17 0 -8 -99 10
-110 7 -4 9 -13 5 -20 -4 -6 1 -17 11 -25 14 -10 21 -10 26 -2 9 14 9 13 11
-104 l2 -85 50 -53 c28 -29 52 -57 53 -62 8 -20 -18 -7 -63 33 -54 48 -86 109
-78 149 3 17 -5 55 -19 96 -47 128 -74 274 -50 273 4 0 15 -7 24 -14z m92 -91
c3 -9 0 -15 -9 -15 -8 0 -15 7 -15 15 0 8 4 15 9 15 5 0 11 -7 15 -15z m461
-489 c18 -8 48 -34 65 -58 17 -24 50 -63 73 -87 35 -37 67 -83 67 -97 0 -2 -7
-4 -15 -4 -9 0 -15 -9 -15 -25 0 -35 -23 -32 -70 11 -38 35 -42 36 -66 23 -20
-10 -25 -19 -22 -41 4 -25 1 -28 -21 -28 -14 0 -40 13 -58 28 -29 25 -33 34
-47 137 -23 161 -24 155 29 155 25 0 61 -6 80 -14z"/>
<path d="M1248 2623 c7 -3 16 -2 19 1 4 3 -2 6 -13 5 -11 0 -14 -3 -6 -6z"/>
</g>
</svg>
